<?xml version="1.0" standalone="no"?>
<!DOCTYPE svg PUBLIC "-//W3C//DTD SVG 20010904//EN"
 "http://www.w3.org/TR/2001/REC-SVG-20010904/DTD/svg10.dtd">
<svg version="1.0" xmlns="http://www.w3.org/2000/svg"
 width="224.000000pt" height="68.000000pt" viewBox="0 0 224.000000 68.000000"
 preserveAspectRatio="xMidYMid meet">

<g transform="translate(0.000000,68.000000) scale(0.100000,-0.100000)"
fill="#000000" stroke="none">
<path d="M0 340 l0 -340 1120 0 1120 0 0 340 0 340 -1120 0 -1120 0 0 -340z
m447 107 c58 -59 63 -67 63 -107 0 -40 -5 -48 -65 -108 -64 -65 -64 -65 -112
-59 -41 4 -54 12 -99 60 -82 85 -84 126 -6 209 52 56 71 66 121 67 29 1 44 -9
98 -62z m358 5 c0 -29 2 -32 32 -32 23 0 33 -5 33 -15 0 -10 -10 -15 -32 -15
l-33 0 4 -51 c3 -55 20 -71 52 -51 13 8 20 9 25 1 9 -16 -15 -29 -53 -29 -45
0 -53 21 -53 135 0 73 3 96 13 92 6 -2 12 -18 12 -35z m525 29 c0 -14 -18 -23
-30 -16 -6 4 -8 11 -5 16 8 12 35 12 35 0z m50 -63 l0 -72 45 44 c52 51 75 47
25 -5 l-34 -35 34 -35 c19 -19 40 -35 47 -35 7 0 13 -4 13 -10 0 -24 -48 -7
-87 32 l-43 42 0 -43 c0 -26 -4 -41 -11 -39 -8 3 -15 155 -9 223 0 3 5 5 10 5
6 0 10 -31 10 -72z m-245 1 c3 6 24 11 46 11 44 0 74 -23 85 -65 8 -31 -12
-82 -37 -95 -25 -14 -86 -12 -96 3 -5 7 -10 -5 -13 -33 -9 -84 -25 -48 -28 64
-3 125 2 151 23 123 8 -12 15 -14 20 -8z m185 -69 c0 -53 -4 -90 -10 -90 -6 0
-10 37 -10 90 0 53 4 90 10 90 6 0 10 -37 10 -90z m531 77 c25 4 39 2 39 -6 0
-6 -8 -11 -18 -11 -10 0 -28 -7 -40 -16 -19 -13 -22 -24 -22 -75 0 -46 -3 -59
-15 -59 -12 0 -15 16 -15 83 0 84 6 105 23 88 5 -5 26 -6 48 -4z m219 -93 c0
-92 -1 -97 -29 -125 -37 -36 -79 -38 -118 -5 -32 28 -25 46 9 22 44 -31 108
-9 108 38 0 15 -3 17 -12 8 -22 -22 -86 -14 -113 13 -56 55 -16 145 64 145 22
0 43 -5 47 -11 5 -8 10 -6 16 5 19 33 28 3 28 -90z m-1326 74 c15 -21 13 -38
-5 -38 -5 0 -9 6 -9 14 0 26 -59 36 -79 12 -15 -18 2 -32 52 -41 81 -15 68
-95 -15 -95 -42 0 -88 34 -70 52 7 7 17 3 31 -11 22 -22 47 -26 70 -12 23 15
5 38 -34 44 -45 7 -65 23 -65 51 0 33 19 46 66 46 33 0 47 -5 58 -22z m281 16
c16 -6 45 -54 45 -74 0 -6 -29 -10 -75 -10 -81 0 -97 -13 -53 -44 30 -21 50
-20 81 4 18 15 28 17 33 9 12 -20 -34 -49 -78 -49 -79 0 -119 90 -63 145 24
25 73 33 110 19z m704 -20 c47 -60 10 -146 -63 -146 -78 0 -118 91 -65 148 33
35 100 34 128 -2z m-164 -125 c10 -15 -1 -23 -20 -15 -9 3 -13 10 -10 16 8 13
22 13 30 -1z"/>
<path d="M280 414 c-55 -52 -63 -81 -30 -114 29 -29 45 -25 94 20 45 41 60 48
72 29 8 -13 -65 -91 -78 -83 -12 8 -39 -16 -32 -27 3 -5 18 -9 34 -9 21 0 40
13 74 48 51 52 56 72 26 102 -30 30 -55 25 -105 -21 -41 -38 -65 -44 -65 -15
0 18 66 79 78 72 9 -6 39 21 31 28 -2 2 -14 7 -26 10 -18 6 -33 -2 -73 -40z"/>
<path d="M1142 394 c-34 -23 -27 -83 11 -104 24 -13 30 -13 55 0 37 21 44 81
10 104 -12 9 -29 16 -38 16 -9 0 -26 -7 -38 -16z"/>
<path d="M1942 394 c-34 -23 -27 -83 11 -104 24 -13 30 -13 55 0 37 21 44 81
10 104 -12 9 -29 16 -38 16 -9 0 -26 -7 -38 -16z"/>
<path d="M942 394 c-36 -25 -26 -34 38 -34 33 0 60 4 60 9 0 13 -41 41 -60 41
-9 0 -26 -7 -38 -16z"/>
<path d="M1622 387 c-12 -13 -22 -32 -22 -43 0 -26 40 -64 67 -64 22 0 63 43
63 65 0 23 -41 65 -64 65 -12 0 -32 -10 -44 -23z"/>
</g>
</svg>
