<?xml version="1.0" standalone="no"?>
<!DOCTYPE svg PUBLIC "-//W3C//DTD SVG 20010904//EN"
 "http://www.w3.org/TR/2001/REC-SVG-20010904/DTD/svg10.dtd">
<svg version="1.0" xmlns="http://www.w3.org/2000/svg"
 width="136.000000pt" height="68.000000pt" viewBox="0 0 136.000000 68.000000"
 preserveAspectRatio="xMidYMid meet">

<g transform="translate(0.000000,68.000000) scale(0.100000,-0.100000)"
fill="#000000" stroke="none">
<path d="M0 340 l0 -340 680 0 680 0 0 340 0 340 -680 0 -680 0 0 -340z m179
183 c-7 -10 -15 -20 -16 -22 -2 -2 -3 5 -3 17 0 14 6 22 16 22 14 0 15 -3 3
-17z m171 5 c0 -4 -6 -8 -14 -8 -7 0 -30 -11 -51 -25 -47 -32 -56 -26 -15 9
17 14 28 26 23 26 -14 -1 -51 -36 -77 -75 -30 -44 -34 -100 -11 -145 9 -17 18
-30 21 -30 2 0 0 9 -6 21 -16 29 -4 36 23 12 12 -11 31 -25 42 -31 16 -8 8
-10 -38 -10 -52 1 -59 3 -72 27 -8 14 -14 22 -15 18 0 -5 5 -17 10 -27 9 -17
7 -19 -25 -18 -23 1 -35 6 -35 15 0 8 5 11 11 7 7 -4 9 0 5 13 -10 33 22 161
49 197 25 33 27 33 100 33 41 0 75 -4 75 -9z m155 -18 c19 -37 19 -42 -2 -38
-10 1 -23 -1 -29 -5 -7 -4 -19 3 -28 17 -8 14 -25 27 -36 31 -35 11 -22 22 30
23 46 1 51 -2 65 -28z m46 8 l10 -23 -5 23 c-2 12 0 22 5 22 10 0 11 -15 3
-47 -9 -33 -28 -28 -47 12 -16 34 -16 35 3 35 12 0 25 -10 31 -22z m215 14
c12 -8 34 -46 34 -59 0 -4 -9 7 -20 25 -16 26 -26 32 -53 32 -42 0 -57 -15
-57 -58 0 -30 4 -35 48 -54 26 -11 55 -27 65 -36 35 -31 9 -113 -36 -111 -19
0 -19 2 6 11 27 10 42 40 35 75 -2 10 -28 31 -63 48 -53 27 -60 34 -63 63 -4
43 21 72 62 72 17 0 36 -4 42 -8z m216 1 l-63 -4 3 -57 3 -57 50 -6 50 -6 -52
-1 -53 -2 0 -60 0 -59 63 -4 62 -3 -67 -2 -68 -2 0 128 c0 71 3 132 7 135 3 4
34 6 67 5 l61 -2 -63 -3z m276 0 l-38 -4 -2 -132 -2 -132 -3 132 -4 132 -37 4
c-20 2 -1 4 43 4 44 0 63 -2 43 -4z m-921 -37 c-13 -10 -15 -15 -5 -18 7 -3
-2 -5 -21 -5 l-34 0 23 19 c12 10 30 18 39 18 14 -1 14 -2 -2 -14z m93 -6 c28
-28 34 -63 19 -107 -7 -21 -12 -44 -10 -52 1 -8 -8 -23 -21 -34 -16 -13 -18
-17 -5 -13 9 3 17 2 17 -3 0 -4 -21 -8 -47 -8 l-48 -1 36 18 c19 10 42 26 49
36 8 9 -3 5 -24 -10 -39 -26 -56 -32 -56 -18 0 4 14 13 31 21 35 15 69 64 69
99 0 13 -13 37 -30 54 -16 16 -30 31 -30 34 0 12 32 2 50 -16z m-16 -32 c24
-34 19 -63 -15 -103 -35 -40 -49 -44 -49 -15 0 11 3 20 8 20 4 0 8 12 9 28 1
15 3 38 6 52 2 14 5 28 6 33 2 14 20 7 35 -15z m-198 -78 l-14 -55 -1 42 c-1
23 5 54 11 69 18 40 20 9 4 -56z m39 33 l-5 -28 11 27 c6 17 17 26 30 25 12
-1 18 -6 14 -16 -5 -12 -3 -12 12 0 15 12 16 12 10 -4 -4 -10 -7 -26 -7 -35
-1 -15 -3 -14 -17 3 -13 16 -15 17 -10 3 4 -10 1 -18 -5 -18 -7 0 -8 12 -4 33
4 23 3 28 -4 17 -5 -8 -10 -22 -10 -30 0 -9 -9 -16 -20 -17 -21 -2 -26 19 -14
51 10 27 25 18 19 -11z m236 5 c0 -10 2 -10 6 0 7 19 23 14 23 -7 0 -29 -11
-51 -25 -51 -8 0 -11 8 -9 23 l5 22 -10 -22 c-16 -37 -30 -27 -18 12 10 34 26
47 28 23z m54 -27 c-4 -17 -11 -31 -16 -31 -9 0 -3 43 8 63 10 17 15 -3 8 -32z
m148 -111 c16 -6 18 -9 5 -9 -21 -1 -48 36 -47 64 0 13 4 8 10 -13 6 -19 19
-37 32 -42z m-410 36 c9 -7 17 -16 17 -20 0 -12 -18 -6 -41 14 -28 22 -6 28
24 6z m24 8 c-3 -3 -12 -4 -19 -1 -8 3 -5 6 6 6 11 1 17 -2 13 -5z m-220 -196
c-3 -7 -5 -2 -5 12 0 14 2 19 5 13 2 -7 2 -19 0 -25z m50 0 c-3 -7 -5 -2 -5
12 0 14 2 19 5 13 2 -7 2 -19 0 -25z m140 0 c-3 -7 -5 -2 -5 12 0 14 2 19 5
13 2 -7 2 -19 0 -25z m113 -2 c0 -6 -4 -5 -9 3 -7 11 -9 11 -14 0 -3 -8 -6 -3
-6 10 -1 20 1 21 14 11 8 -7 15 -18 15 -24z m57 8 c2 -13 1 -15 -4 -4 -3 8
-11 19 -17 23 -7 6 -6 7 4 4 8 -2 16 -12 17 -23z m96 5 c5 -3 2 -9 -7 -12 -12
-5 -16 0 -16 15 0 12 3 17 8 12 4 -5 11 -12 15 -15z m64 -5 c2 -13 1 -15 -4
-4 -3 8 -11 19 -17 23 -7 6 -6 7 4 4 8 -2 16 -12 17 -23z m70 -6 c-3 -7 -5 -2
-5 12 0 14 2 19 5 13 2 -7 2 -19 0 -25z m50 0 c-3 -7 -5 -2 -5 12 0 14 2 19 5
13 2 -7 2 -19 0 -25z m110 0 c-3 -7 -5 -2 -5 12 0 14 2 19 5 13 2 -7 2 -19 0
-25z m50 0 c-3 -7 -5 -2 -5 12 0 14 2 19 5 13 2 -7 2 -19 0 -25z m53 -1 c0
-14 -26 0 -27 15 -2 16 0 16 13 4 8 -8 14 -16 14 -19z m27 1 c-3 -7 -5 -2 -5
12 0 14 2 19 5 13 2 -7 2 -19 0 -25z m20 0 c-3 -7 -5 -2 -5 12 0 14 2 19 5 13
2 -7 2 -19 0 -25z m80 0 c-3 -7 -5 -2 -5 12 0 14 2 19 5 13 2 -7 2 -19 0 -25z
m40 0 c-3 -7 -5 -2 -5 12 0 14 2 19 5 13 2 -7 2 -19 0 -25z m110 0 c-3 -7 -5
-2 -5 12 0 14 2 19 5 13 2 -7 2 -19 0 -25z m-407 2 c0 -5 -2 -10 -4 -10 -3 0
-8 5 -11 10 -3 6 -1 10 4 10 6 0 11 -4 11 -10z"/>
<path d="M212 508 c-31 -34 -62 -108 -61 -148 1 -36 3 -31 14 32 3 20 21 60
40 88 37 55 39 61 7 28z"/>
<path d="M455 510 c10 -11 20 -20 23 -20 3 0 -3 9 -13 20 -10 11 -20 20 -23
20 -3 0 3 -9 13 -20z"/>
<path d="M392 440 c7 -10 14 -18 15 -16 6 6 -9 36 -18 36 -5 0 -4 -9 3 -20z"/>
<path d="M378 408 c-2 -37 -3 -42 -11 -55 -5 -7 -6 -13 -3 -13 9 0 46 43 46
54 0 5 -7 1 -15 -10 -14 -18 -14 -17 -9 14 4 17 4 32 0 32 -3 0 -7 -10 -8 -22z"/>
</g>
</svg>
